<svg xmlns="http://www.w3.org/2000/svg" viewBox="0 0 100 100" width="100" height="100" role="img" aria-label="Open Persona">
<g stroke="#2a2018" stroke-opacity="0.5" stroke-width="0.9" fill="none"><ellipse cx="50" cy="50" rx="37.00" ry="13.32"></ellipse><ellipse cx="50" cy="62" rx="35.00" ry="12.60"></ellipse><ellipse cx="50" cy="38" rx="35.00" ry="12.60"></ellipse><ellipse cx="50" cy="73" rx="28.98" ry="10.43"></ellipse><ellipse cx="50" cy="27" rx="28.98" ry="10.43"></ellipse><ellipse cx="50" cy="81" rx="20.20" ry="7.27"></ellipse><ellipse cx="50" cy="19" rx="20.20" ry="7.27"></ellipse></g>
  <g stroke="#2a2018" stroke-opacity="0.36" stroke-width="0.9" fill="none"><ellipse cx="50" cy="50" rx="13.32" ry="37"></ellipse><ellipse cx="50" cy="50" rx="22.94" ry="37" transform="rotate(30 50 50)"></ellipse><ellipse cx="50" cy="50" rx="22.94" ry="37" transform="rotate(-30 50 50)"></ellipse></g>
  <circle cx="50" cy="50" r="37" fill="none" stroke="#2a2018" stroke-opacity="0.9" stroke-width="1.6"></circle>
  <g><line x1="50" y1="50" x2="58.96" y2="17.08" stroke="#2a2018" stroke-opacity="0.55" stroke-width="1"></line><line x1="50" y1="50" x2="14.64" y2="50.35" stroke="#2a2018" stroke-opacity="0.55" stroke-width="1"></line><line x1="50" y1="50" x2="86.43" y2="44.16" stroke="#2a2018" stroke-opacity="0.55" stroke-width="1"></line><line x1="50" y1="50" x2="57.76" y2="83.74" stroke="#2a2018" stroke-opacity="0.55" stroke-width="1"></line></g><circle cx="58.96" cy="17.08" r="3.6" fill="#2a2018"></circle><circle cx="14.64" cy="50.35" r="3.1" fill="#2a2018"></circle><circle cx="86.43" cy="44.16" r="3.1" fill="#2a2018"></circle><circle cx="57.76" cy="83.74" r="3.1" fill="#2a2018"></circle>
  <circle cx="50" cy="50" r="8.5" fill="#2a2018"></circle>
</svg>