<svg xmlns="http://www.w3.org/2000/svg" viewBox="0 0 100 100" width="100" height="100" role="img" aria-label="Open Persona">
  <defs>
    <radialGradient id="core_t" cx="40%" cy="36%" r="72%"><stop offset="0%" stop-color="#ffc4ab"></stop><stop offset="40%" stop-color="#f06b41"></stop><stop offset="100%" stop-color="#cc4222"></stop></radialGradient>
    <radialGradient id="depth_t" cx="36%" cy="30%" r="85%"><stop offset="0%" stop-color="#ffffff" stop-opacity="0.08"></stop><stop offset="55%" stop-color="#ffffff" stop-opacity="0"></stop><stop offset="100%" stop-color="#000000" stop-opacity="0"></stop></radialGradient>
    <filter id="glow_t" x="-80%" y="-80%" width="260%" height="260%"><feGaussianBlur stdDeviation="2.6" result="b"></feGaussianBlur><feMerge><feMergeNode in="b"></feMergeNode><feMergeNode in="SourceGraphic"></feMergeNode></feMerge></filter>
  </defs>
  
  <g stroke="#e7d6bd" stroke-opacity="0.4" stroke-width="0.9" fill="none"><ellipse cx="50" cy="50" rx="37.00" ry="13.32"></ellipse><ellipse cx="50" cy="62" rx="35.00" ry="12.60"></ellipse><ellipse cx="50" cy="38" rx="35.00" ry="12.60"></ellipse><ellipse cx="50" cy="73" rx="28.98" ry="10.43"></ellipse><ellipse cx="50" cy="27" rx="28.98" ry="10.43"></ellipse><ellipse cx="50" cy="81" rx="20.20" ry="7.27"></ellipse><ellipse cx="50" cy="19" rx="20.20" ry="7.27"></ellipse></g>
  <g stroke="#e7d6bd" stroke-opacity="0.288" stroke-width="0.9" fill="none">
    <ellipse cx="50" cy="50" rx="13.32" ry="37"></ellipse>
    <ellipse cx="50" cy="50" rx="22.94" ry="37" transform="rotate(30 50 50)"></ellipse>
    <ellipse cx="50" cy="50" rx="22.94" ry="37" transform="rotate(-30 50 50)"></ellipse>
  </g>
  <circle cx="50" cy="50" r="37" fill="url(#depth_t)"></circle>
  <circle cx="50" cy="50" r="37" fill="none" stroke="#f0e2cf" stroke-opacity="0.7" stroke-width="1.5"></circle>
  <g><line x1="50" y1="50" x2="58.96" y2="17.08" stroke="#2bb6aa" stroke-opacity="0.5" stroke-width="1"></line><line x1="50" y1="50" x2="14.64" y2="50.35" stroke="#5bb05a" stroke-opacity="0.5" stroke-width="1"></line><line x1="50" y1="50" x2="86.43" y2="44.16" stroke="#8f8bf2" stroke-opacity="0.5" stroke-width="1"></line><line x1="50" y1="50" x2="57.76" y2="83.74" stroke="#e873a6" stroke-opacity="0.5" stroke-width="1"></line></g>
  <circle cx="58.96" cy="17.08" r="3.6" fill="#2bb6aa"></circle><circle cx="58.96" cy="17.08" r="3.6" fill="none" stroke="#1c1813" stroke-width="0.8"></circle><circle cx="14.64" cy="50.35" r="3.1" fill="#5bb05a"></circle><circle cx="14.64" cy="50.35" r="3.1" fill="none" stroke="#1c1813" stroke-width="0.8"></circle><circle cx="86.43" cy="44.16" r="3.1" fill="#8f8bf2"></circle><circle cx="86.43" cy="44.16" r="3.1" fill="none" stroke="#1c1813" stroke-width="0.8"></circle><circle cx="57.76" cy="83.74" r="3.1" fill="#e873a6"></circle><circle cx="57.76" cy="83.74" r="3.1" fill="none" stroke="#1c1813" stroke-width="0.8"></circle>
  <g filter="url(#glow_t)"><circle cx="50" cy="50" r="8" fill="url(#core_t)"></circle></g>
  <circle cx="48" cy="47.6" r="2" fill="#fff" opacity="0.5"></circle>
</svg>